<svg xmlns="http://www.w3.org/2000/svg" xmlns:xlink="http://www.w3.org/1999/xlink" width="200" zoomAndPan="magnify" viewBox="0 0 150 74.999997" height="100" preserveAspectRatio="xMidYMid meet" version="1.0"><defs><g/><clipPath id="35349f9c46"><path d="M 1.222656 12.535156 L 51.472656 12.535156 L 51.472656 62.785156 L 1.222656 62.785156 Z M 1.222656 12.535156 " clip-rule="nonzero"/></clipPath></defs><g clip-path="url(#35349f9c46)"><path fill="#fffefa" d="M 29.097656 47.246094 C 26.828125 52.636719 28.488281 58.875 33.167969 62.429688 C 37.378906 60.660156 40.339844 56.761719 40.90625 52.21875 C 45.445312 51.648438 49.347656 48.691406 51.117188 44.480469 C 47.5625 39.804688 41.324219 38.140625 35.933594 40.40625 C 33.585938 38.621094 31.632812 38.070312 29.269531 37.9375 L 29.269531 37.03125 C 31.632812 36.894531 33.585938 36.347656 35.933594 34.554688 C 41.324219 36.824219 47.5625 35.15625 51.117188 30.484375 C 49.347656 26.273438 45.445312 23.3125 40.90625 22.75 C 40.339844 18.207031 37.378906 14.304688 33.167969 12.535156 C 28.488281 16.089844 26.828125 22.332031 29.097656 27.71875 C 27.308594 30.066406 26.757812 32.023438 26.625 34.386719 L 25.71875 34.386719 C 25.582031 32.023438 25.035156 30.066406 23.242188 27.71875 C 25.511719 22.332031 23.84375 16.089844 19.171875 12.535156 C 14.960938 14.304688 12 18.207031 11.433594 22.75 C 6.894531 23.3125 2.992188 26.273438 1.222656 30.484375 C 4.777344 35.164062 11.015625 36.824219 16.40625 34.554688 C 18.75 36.339844 20.703125 36.894531 23.058594 37.03125 L 23.058594 37.9375 C 20.703125 38.070312 18.75 38.625 16.40625 40.410156 C 11.015625 38.140625 4.777344 39.804688 1.222656 44.480469 C 2.992188 48.691406 6.894531 51.652344 11.433594 52.21875 C 12.003906 56.761719 14.960938 60.660156 19.171875 62.429688 C 23.851562 58.875 25.511719 52.636719 23.25 47.246094 C 25.035156 44.898438 25.585938 42.9375 25.722656 40.574219 L 26.617188 40.574219 C 26.753906 42.9375 27.308594 44.898438 29.097656 47.246094 Z M 25.738281 37.894531 L 25.738281 37.0625 L 26.597656 37.0625 L 26.597656 37.894531 Z M 30.578125 30.328125 C 32.207031 27.566406 35.054688 25.722656 38.261719 25.390625 C 37.773438 30.15625 33.996094 33.925781 29.238281 34.414062 C 29.386719 32.992188 29.832031 31.597656 30.578125 30.328125 Z M 33.574219 15.769531 C 36.042969 17.320312 37.714844 19.851562 38.179688 22.695312 C 35.65625 22.917969 33.222656 23.875 31.179688 25.554688 C 30.1875 22.097656 31.089844 18.378906 33.574219 15.769531 Z M 38.101562 32.472656 C 39.777344 30.433594 40.738281 27.996094 40.960938 25.472656 C 43.804688 25.9375 46.332031 27.609375 47.882812 30.078125 C 45.277344 32.558594 41.554688 33.464844 38.101562 32.472656 Z M 19.015625 33.074219 C 16.253906 31.445312 14.410156 28.597656 14.078125 25.390625 C 18.84375 25.878906 22.613281 29.648438 23.101562 34.414062 C 21.679688 34.269531 20.285156 33.824219 19.015625 33.074219 Z M 4.457031 30.078125 C 6.007812 27.609375 8.539062 25.9375 11.378906 25.472656 C 11.601562 27.996094 12.5625 30.433594 14.242188 32.472656 C 10.785156 33.464844 7.066406 32.5625 4.457031 30.078125 Z M 21.160156 25.554688 C 19.117188 23.875 16.683594 22.917969 14.160156 22.695312 C 14.625 19.851562 16.296875 17.320312 18.765625 15.769531 C 21.246094 18.375 22.152344 22.097656 21.160156 25.554688 Z M 21.761719 44.636719 C 20.140625 47.398438 17.285156 49.246094 14.078125 49.574219 C 14.566406 44.8125 18.34375 41.039062 23.101562 40.550781 C 22.957031 41.972656 22.511719 43.367188 21.761719 44.636719 Z M 18.765625 59.195312 C 16.296875 57.644531 14.625 55.117188 14.160156 52.273438 C 16.683594 52.050781 19.117188 51.089844 21.160156 49.414062 C 22.152344 52.871094 21.25 56.585938 18.765625 59.195312 Z M 14.242188 42.496094 C 12.5625 44.535156 11.601562 46.972656 11.378906 49.496094 C 8.539062 49.027344 6.007812 47.355469 4.457031 44.886719 C 7.0625 42.40625 10.785156 41.5 14.242188 42.496094 Z M 33.324219 41.890625 C 36.085938 43.515625 37.933594 46.367188 38.261719 49.574219 C 33.5 49.085938 29.726562 45.3125 29.238281 40.550781 C 30.660156 40.699219 32.054688 41.144531 33.324219 41.890625 Z M 47.882812 44.886719 C 46.332031 47.355469 43.804688 49.027344 40.960938 49.496094 C 40.738281 46.972656 39.777344 44.535156 38.101562 42.496094 C 41.554688 41.5 45.273438 42.402344 47.882812 44.886719 Z M 31.179688 49.414062 C 33.222656 51.089844 35.65625 52.050781 38.179688 52.273438 C 37.714844 55.117188 36.042969 57.644531 33.574219 59.195312 C 31.09375 56.59375 30.1875 52.871094 31.179688 49.414062 Z M 31.179688 49.414062 " fill-opacity="1" fill-rule="evenodd"/></g><g fill="#fffefa" fill-opacity="1"><g transform="translate(52.391441, 44.429115)"><g><path d="M 11.417969 -9.539062 L 11.554688 -9.074219 C 11.554688 -9.074219 11.574219 -9.089844 11.625 -9.105469 C 11.675781 -9.105469 11.730469 -9.125 11.796875 -9.125 C 11.847656 -9.125 11.902344 -9.105469 11.953125 -9.105469 C 12.003906 -9.089844 12.039062 -9.074219 12.039062 -9.074219 L 12.039062 -12.882812 C 12.039062 -12.851562 11.96875 -12.851562 11.847656 -12.851562 C 11.710938 -12.851562 11.660156 -12.851562 11.660156 -12.882812 L 11.609375 -12.558594 C 11.574219 -12.402344 11.402344 -12.332031 11.074219 -12.367188 C 10.726562 -12.382812 10.296875 -12.488281 9.78125 -12.675781 C 9.433594 -12.816406 9.039062 -12.917969 8.605469 -12.988281 C 8.175781 -13.058594 7.691406 -13.109375 7.140625 -13.109375 C 6.191406 -13.109375 5.328125 -12.9375 4.570312 -12.625 C 3.792969 -12.316406 3.140625 -11.867188 2.585938 -11.28125 C 2.035156 -10.695312 1.605469 -10.003906 1.3125 -9.191406 C 1 -8.367188 0.863281 -7.46875 0.863281 -6.46875 C 0.863281 -5.46875 1 -4.554688 1.292969 -3.742188 C 1.585938 -2.914062 2 -2.226562 2.535156 -1.636719 C 3.054688 -1.050781 3.691406 -0.605469 4.449219 -0.292969 C 5.191406 0.015625 6.019531 0.171875 6.949219 0.171875 C 7.503906 0.171875 8.019531 0.136719 8.484375 0.0507812 C 8.933594 -0.015625 9.367188 -0.136719 9.746094 -0.308594 C 10.28125 -0.484375 10.710938 -0.585938 11.054688 -0.585938 C 11.402344 -0.585938 11.574219 -0.515625 11.609375 -0.34375 L 11.660156 0.015625 C 11.660156 0 11.710938 -0.015625 11.847656 -0.015625 C 11.96875 -0.015625 12.039062 0 12.039062 0.015625 L 12.039062 -3.847656 C 12.039062 -3.8125 12.003906 -3.792969 11.953125 -3.792969 C 11.902344 -3.792969 11.847656 -3.792969 11.796875 -3.792969 C 11.730469 -3.792969 11.675781 -3.792969 11.625 -3.792969 C 11.574219 -3.792969 11.554688 -3.8125 11.554688 -3.847656 L 11.417969 -3.363281 C 11.210938 -2.671875 10.867188 -2.050781 10.382812 -1.535156 C 9.902344 -1.019531 9.332031 -0.636719 8.710938 -0.429688 C 8.46875 -0.34375 8.210938 -0.277344 7.953125 -0.242188 C 7.691406 -0.207031 7.417969 -0.191406 7.125 -0.191406 C 6.46875 -0.191406 5.863281 -0.328125 5.328125 -0.636719 C 4.796875 -0.929688 4.328125 -1.34375 3.949219 -1.898438 C 3.570312 -2.449219 3.277344 -3.105469 3.070312 -3.878906 C 2.863281 -4.640625 2.757812 -5.503906 2.757812 -6.433594 C 2.757812 -7.363281 2.863281 -8.210938 3.085938 -8.96875 C 3.292969 -9.726562 3.605469 -10.382812 4 -10.933594 C 4.398438 -11.46875 4.882812 -11.882812 5.449219 -12.195312 C 6.003906 -12.488281 6.625 -12.644531 7.3125 -12.644531 C 7.8125 -12.644531 8.277344 -12.589844 8.691406 -12.488281 C 9.3125 -12.296875 9.867188 -11.9375 10.367188 -11.417969 C 10.867188 -10.882812 11.210938 -10.261719 11.417969 -9.539062 Z M 11.417969 -9.539062 "/></g></g></g><g fill="#fffefa" fill-opacity="1"><g transform="translate(66.03467, 44.429115)"><g><path d="M 13.539062 -0.015625 L 13.558594 0 L 13.558594 -0.34375 C 13.175781 -0.34375 12.867188 -0.34375 12.644531 -0.363281 C 12.417969 -0.363281 12.230469 -0.414062 12.074219 -0.484375 C 11.917969 -0.550781 11.78125 -0.65625 11.660156 -0.792969 C 11.539062 -0.929688 11.402344 -1.121094 11.230469 -1.378906 C 10.367188 -2.570312 9.640625 -3.585938 9.039062 -4.449219 C 8.433594 -5.296875 8.003906 -5.898438 7.746094 -6.277344 C 8.605469 -6.449219 9.28125 -6.796875 9.78125 -7.277344 C 10.28125 -7.761719 10.539062 -8.433594 10.539062 -9.28125 C 10.539062 -9.832031 10.417969 -10.332031 10.210938 -10.78125 C 10.003906 -11.230469 9.695312 -11.609375 9.296875 -11.917969 C 8.898438 -12.230469 8.433594 -12.488281 7.882812 -12.660156 C 7.332031 -12.832031 6.710938 -12.9375 6.035156 -12.9375 L 1.035156 -12.9375 C 1.035156 -12.902344 1.035156 -12.816406 1.035156 -12.710938 C 1.035156 -12.609375 1.035156 -12.523438 1.035156 -12.488281 L 1.257812 -12.503906 C 1.621094 -12.523438 1.914062 -12.367188 2.15625 -12.039062 C 2.378906 -11.695312 2.5 -11.246094 2.5 -10.675781 L 2.5 -2.226562 C 2.5 -1.636719 2.378906 -1.191406 2.15625 -0.863281 C 1.914062 -0.515625 1.621094 -0.363281 1.257812 -0.398438 L 1.035156 -0.414062 L 1.035156 0.015625 L 5.691406 0.015625 C 5.691406 -0.015625 5.675781 -0.0859375 5.675781 -0.191406 C 5.675781 -0.292969 5.675781 -0.378906 5.691406 -0.429688 L 5.46875 -0.414062 C 5.089844 -0.378906 4.796875 -0.535156 4.570312 -0.878906 C 4.328125 -1.207031 4.226562 -1.65625 4.226562 -2.242188 L 4.226562 -6.125 L 5.96875 -6.125 C 6.140625 -5.8125 6.519531 -5.226562 7.089844 -4.398438 C 7.65625 -3.570312 8.367188 -2.570312 9.191406 -1.398438 C 9.433594 -1.050781 9.640625 -0.792969 9.8125 -0.621094 C 9.988281 -0.429688 10.226562 -0.292969 10.503906 -0.207031 C 10.78125 -0.101562 11.160156 -0.0507812 11.625 -0.0351562 C 12.089844 -0.015625 12.730469 -0.015625 13.539062 -0.015625 Z M 6.019531 -6.570312 L 4.207031 -6.570312 L 4.207031 -12.609375 L 5.503906 -12.609375 C 5.949219 -12.609375 6.382812 -12.523438 6.761719 -12.382812 C 7.140625 -12.246094 7.46875 -12.039062 7.746094 -11.78125 C 8.019531 -11.523438 8.226562 -11.210938 8.382812 -10.847656 C 8.519531 -10.488281 8.605469 -10.089844 8.605469 -9.640625 C 8.605469 -8.574219 8.367188 -7.796875 7.882812 -7.3125 C 7.398438 -6.8125 6.777344 -6.570312 6.019531 -6.570312 Z M 6.019531 -6.570312 "/></g></g></g><g fill="#fffefa" fill-opacity="1"><g transform="translate(80.643526, 44.429115)"><g><path d="M 9.605469 -12.746094 L 9.589844 -12.761719 L 9.574219 -12.9375 L 0.691406 -12.9375 C 0.691406 -12.902344 0.691406 -12.816406 0.691406 -12.710938 C 0.691406 -12.609375 0.691406 -12.523438 0.691406 -12.488281 L 0.964844 -12.503906 C 1.414062 -12.523438 1.792969 -12.332031 2.070312 -11.9375 C 2.347656 -11.539062 2.5 -11.003906 2.5 -10.332031 L 2.5 -2.570312 C 2.5 -1.878906 2.347656 -1.34375 2.070312 -0.949219 C 1.792969 -0.550781 1.414062 -0.363281 0.964844 -0.398438 L 0.691406 -0.414062 L 0.691406 0.015625 L 10.003906 0.015625 L 10.039062 -0.15625 C 10.089844 -0.5 10.160156 -0.898438 10.246094 -1.328125 C 10.3125 -1.742188 10.382812 -2.140625 10.453125 -2.5 C 10.433594 -2.484375 10.417969 -2.484375 10.417969 -2.484375 C 10.402344 -2.464844 10.382812 -2.464844 10.382812 -2.464844 L 10.296875 -2.464844 C 10.261719 -2.464844 10.246094 -2.464844 10.210938 -2.484375 C 10.160156 -2.484375 10.125 -2.484375 10.089844 -2.5 L 9.96875 -2.171875 C 9.796875 -1.691406 9.453125 -1.277344 8.933594 -0.964844 C 8.417969 -0.65625 7.8125 -0.449219 7.105469 -0.378906 C 6.449219 -0.429688 5.949219 -0.550781 5.570312 -0.742188 C 5.191406 -0.914062 4.898438 -1.15625 4.691406 -1.449219 C 4.484375 -1.742188 4.363281 -2.085938 4.3125 -2.464844 C 4.242188 -2.847656 4.226562 -3.277344 4.226562 -3.742188 L 4.226562 -6.625 L 5.347656 -6.625 C 6.070312 -6.625 6.675781 -6.433594 7.191406 -6.070312 C 7.691406 -5.710938 8.003906 -5.226562 8.105469 -4.640625 L 8.175781 -4.292969 C 8.210938 -4.292969 8.277344 -4.292969 8.347656 -4.3125 C 8.417969 -4.3125 8.484375 -4.3125 8.539062 -4.292969 L 8.539062 -9.367188 C 8.519531 -9.347656 8.503906 -9.347656 8.503906 -9.347656 C 8.484375 -9.332031 8.46875 -9.332031 8.46875 -9.332031 L 8.382812 -9.332031 C 8.347656 -9.332031 8.332031 -9.332031 8.296875 -9.347656 C 8.246094 -9.347656 8.210938 -9.347656 8.175781 -9.367188 L 8.105469 -9.019531 C 8.003906 -8.417969 7.691406 -7.933594 7.191406 -7.570312 C 6.675781 -7.210938 6.070312 -7.039062 5.347656 -7.039062 L 4.226562 -7.039062 L 4.226562 -12.558594 L 6.433594 -12.558594 C 7.15625 -12.558594 7.796875 -12.367188 8.347656 -12.003906 C 8.898438 -11.640625 9.261719 -11.160156 9.433594 -10.574219 L 9.539062 -10.226562 C 9.574219 -10.226562 9.640625 -10.226562 9.710938 -10.246094 C 9.78125 -10.246094 9.847656 -10.246094 9.902344 -10.226562 C 9.847656 -10.609375 9.796875 -11.023438 9.746094 -11.488281 C 9.695312 -11.9375 9.640625 -12.367188 9.605469 -12.746094 Z M 9.605469 -12.746094 "/></g></g></g><g fill="#fffefa" fill-opacity="1"><g transform="translate(92.769341, 44.429115)"><g><path d="M 5.089844 -0.34375 C 4.882812 -0.34375 4.726562 -0.414062 4.621094 -0.585938 C 4.5 -0.742188 4.414062 -0.964844 4.363281 -1.277344 C 4.292969 -1.570312 4.261719 -1.933594 4.242188 -2.347656 C 4.226562 -2.757812 4.226562 -3.242188 4.226562 -3.761719 L 4.226562 -12.589844 L 4.914062 -12.589844 C 6.054688 -12.589844 7.070312 -12.4375 7.933594 -12.144531 C 8.796875 -11.847656 9.519531 -11.433594 10.109375 -10.902344 C 10.695312 -10.367188 11.125 -9.726562 11.417969 -8.96875 C 11.710938 -8.210938 11.867188 -7.382812 11.867188 -6.46875 C 11.867188 -5.449219 11.695312 -4.554688 11.382812 -3.792969 C 11.054688 -3.035156 10.589844 -2.398438 10.003906 -1.878906 C 9.398438 -1.363281 8.675781 -0.984375 7.847656 -0.722656 C 7.019531 -0.464844 6.089844 -0.34375 5.089844 -0.34375 Z M 1.035156 0.015625 L 5.605469 0 C 6.8125 0 7.933594 -0.136719 8.933594 -0.414062 C 9.933594 -0.691406 10.796875 -1.085938 11.523438 -1.636719 C 12.230469 -2.171875 12.78125 -2.847656 13.175781 -3.65625 C 13.558594 -4.449219 13.765625 -5.398438 13.765625 -6.46875 C 13.765625 -7.433594 13.589844 -8.3125 13.28125 -9.105469 C 12.96875 -9.902344 12.488281 -10.589844 11.867188 -11.160156 C 11.246094 -11.710938 10.46875 -12.160156 9.539062 -12.46875 C 8.605469 -12.78125 7.519531 -12.9375 6.296875 -12.9375 L 1.035156 -12.9375 C 1.035156 -12.902344 1.035156 -12.816406 1.035156 -12.710938 C 1.035156 -12.609375 1.035156 -12.523438 1.035156 -12.488281 L 1.257812 -12.503906 C 1.621094 -12.523438 1.914062 -12.367188 2.15625 -12.039062 C 2.378906 -11.695312 2.5 -11.246094 2.5 -10.675781 L 2.5 -2.226562 C 2.5 -1.636719 2.378906 -1.191406 2.15625 -0.863281 C 1.914062 -0.515625 1.621094 -0.363281 1.257812 -0.398438 L 1.035156 -0.414062 Z M 1.035156 0.015625 "/></g></g></g><g fill="#fffefa" fill-opacity="1"><g transform="translate(108.361068, 44.429115)"><g><path d="M 1.464844 0 L 6.125 0 C 6.125 -0.0351562 6.105469 -0.101562 6.105469 -0.207031 C 6.105469 -0.308594 6.105469 -0.398438 6.125 -0.449219 L 5.898438 -0.429688 C 5.519531 -0.398438 5.226562 -0.550781 5.003906 -0.898438 C 4.761719 -1.226562 4.65625 -1.671875 4.65625 -2.257812 L 4.65625 -5.949219 L 5.519531 -5.949219 C 6.261719 -5.949219 6.933594 -6.003906 7.554688 -6.140625 C 8.160156 -6.277344 8.675781 -6.484375 9.125 -6.761719 C 9.554688 -7.039062 9.882812 -7.382812 10.125 -7.796875 C 10.367188 -8.210938 10.488281 -8.726562 10.488281 -9.3125 C 10.488281 -9.867188 10.382812 -10.347656 10.195312 -10.796875 C 9.988281 -11.246094 9.710938 -11.625 9.347656 -11.953125 C 8.984375 -12.261719 8.554688 -12.523438 8.054688 -12.695312 C 7.554688 -12.867188 7.003906 -12.953125 6.382812 -12.953125 L 1.464844 -12.953125 C 1.464844 -12.917969 1.464844 -12.832031 1.464844 -12.730469 C 1.464844 -12.625 1.464844 -12.539062 1.464844 -12.503906 L 1.691406 -12.523438 C 2.050781 -12.539062 2.347656 -12.382812 2.585938 -12.054688 C 2.8125 -11.710938 2.933594 -11.261719 2.933594 -10.695312 L 2.933594 -2.242188 C 2.933594 -1.65625 2.8125 -1.207031 2.585938 -0.878906 C 2.347656 -0.535156 2.050781 -0.378906 1.691406 -0.414062 L 1.464844 -0.429688 Z M 5.519531 -6.296875 L 4.65625 -6.296875 L 4.65625 -12.644531 L 5.949219 -12.644531 C 6.382812 -12.644531 6.777344 -12.558594 7.140625 -12.417969 C 7.503906 -12.261719 7.8125 -12.054688 8.070312 -11.796875 C 8.332031 -11.523438 8.539062 -11.210938 8.675781 -10.832031 C 8.8125 -10.453125 8.882812 -10.019531 8.882812 -9.574219 C 8.882812 -8.433594 8.574219 -7.605469 7.953125 -7.089844 C 7.332031 -6.554688 6.519531 -6.296875 5.519531 -6.296875 Z M 5.519531 -6.296875 "/></g></g></g><g fill="#fffefa" fill-opacity="1"><g transform="translate(120.07304, 44.429115)"><g><path d="M 13.574219 -0.515625 L 13.316406 -0.535156 C 12.902344 -0.5 12.503906 -0.742188 12.089844 -1.226562 C 11.675781 -1.707031 11.332031 -2.363281 11.074219 -3.191406 L 8.125 -12.417969 C 8.089844 -12.574219 8.054688 -12.710938 8.019531 -12.851562 C 7.984375 -12.953125 7.96875 -13.039062 7.933594 -13.144531 C 7.898438 -13.230469 7.863281 -13.28125 7.847656 -13.28125 L 7.675781 -13.28125 C 7.710938 -13.074219 7.605469 -12.902344 7.363281 -12.746094 C 7.125 -12.574219 6.8125 -12.46875 6.398438 -12.417969 C 6.398438 -12.382812 6.417969 -12.367188 6.417969 -12.332031 C 6.417969 -12.296875 6.433594 -12.261719 6.449219 -12.246094 L 3.449219 -3.140625 C 3.171875 -2.3125 2.777344 -1.671875 2.257812 -1.207031 C 1.742188 -0.722656 1.207031 -0.5 0.621094 -0.535156 L 0.277344 -0.535156 C 0.277344 -0.5 0.277344 -0.484375 0.292969 -0.464844 C 0.292969 -0.429688 0.292969 -0.414062 0.292969 -0.398438 C 0.292969 -0.363281 0.308594 -0.34375 0.308594 -0.34375 C 0.308594 -0.308594 0.292969 -0.277344 0.292969 -0.242188 C 0.292969 -0.207031 0.292969 -0.171875 0.292969 -0.136719 C 0.277344 -0.0859375 0.277344 -0.0351562 0.277344 0 L 5.277344 0 C 5.277344 -0.0351562 5.261719 -0.121094 5.261719 -0.257812 C 5.261719 -0.398438 5.261719 -0.484375 5.277344 -0.535156 L 4.949219 -0.535156 C 4.398438 -0.5 4.035156 -0.707031 3.847656 -1.15625 C 3.65625 -1.585938 3.65625 -2.191406 3.863281 -2.949219 L 4.449219 -4.8125 L 8.78125 -4.8125 L 9.28125 -3.191406 C 9.539062 -2.363281 9.574219 -1.691406 9.398438 -1.207031 C 9.226562 -0.722656 8.847656 -0.484375 8.296875 -0.515625 L 7.96875 -0.515625 L 7.96875 0.015625 L 13.574219 0.015625 C 13.574219 -0.015625 13.558594 -0.101562 13.558594 -0.242188 C 13.558594 -0.363281 13.558594 -0.449219 13.574219 -0.515625 Z M 8.660156 -5.242188 L 4.605469 -5.242188 L 6.640625 -11.675781 Z M 8.660156 -5.242188 "/></g></g></g><g fill="#fffefa" fill-opacity="1"><g transform="translate(134.681899, 44.429115)"><g><path d="M 9.574219 -10.609375 L 9.605469 -10.609375 L 7.398438 -6.140625 L 4.605469 -10.609375 L 4.621094 -10.609375 C 4.242188 -11.195312 4.070312 -11.675781 4.085938 -12.023438 C 4.105469 -12.367188 4.3125 -12.539062 4.726562 -12.523438 L 4.96875 -12.503906 L 4.96875 -12.9375 L 0.191406 -12.9375 C 0.191406 -12.882812 0.191406 -12.816406 0.191406 -12.710938 C 0.191406 -12.609375 0.191406 -12.539062 0.191406 -12.503906 L 0.363281 -12.523438 C 0.621094 -12.539062 0.929688 -12.402344 1.3125 -12.125 C 1.671875 -11.832031 2.035156 -11.433594 2.398438 -10.933594 L 5.828125 -5.554688 L 5.828125 -2.585938 C 5.828125 -1.898438 5.675781 -1.363281 5.398438 -0.964844 C 5.121094 -0.570312 4.742188 -0.378906 4.292969 -0.414062 L 4.019531 -0.429688 L 4.019531 0 L 9.367188 0 C 9.367188 -0.0351562 9.347656 -0.101562 9.347656 -0.207031 C 9.347656 -0.308594 9.347656 -0.398438 9.367188 -0.449219 L 9.089844 -0.429688 C 8.625 -0.398438 8.246094 -0.585938 7.96875 -0.984375 C 7.691406 -1.378906 7.554688 -1.914062 7.554688 -2.605469 L 7.554688 -5.621094 L 10.46875 -10.917969 C 10.796875 -11.433594 11.160156 -11.832031 11.574219 -12.125 C 11.988281 -12.417969 12.367188 -12.558594 12.746094 -12.539062 L 12.988281 -12.523438 L 12.988281 -12.953125 L 8.574219 -12.953125 C 8.574219 -12.917969 8.574219 -12.832031 8.574219 -12.730469 C 8.574219 -12.625 8.574219 -12.539062 8.574219 -12.503906 L 8.867188 -12.523438 C 9.382812 -12.539062 9.695312 -12.367188 9.8125 -12.023438 C 9.933594 -11.660156 9.847656 -11.195312 9.574219 -10.609375 Z M 9.574219 -10.609375 "/></g></g></g></svg>