<svg xmlns="http://www.w3.org/2000/svg" xmlns:xlink="http://www.w3.org/1999/xlink" width="500" zoomAndPan="magnify" viewBox="0 0 375 187.499995" height="250" preserveAspectRatio="xMidYMid meet" version="1.0"><defs><g/><clipPath id="112fd35242"><path d="M 3.546875 31.257812 L 127.714844 31.257812 L 127.714844 155.425781 L 3.546875 155.425781 Z M 3.546875 31.257812 " clip-rule="nonzero"/></clipPath></defs><g clip-path="url(#112fd35242)"><path fill="#fffefa" d="M 73.054688 117.8125 C 67.398438 131.25 71.539062 146.808594 83.203125 155.671875 C 93.703125 151.261719 101.09375 141.53125 102.5 130.207031 C 113.824219 128.785156 123.554688 121.414062 127.964844 110.914062 C 119.101562 99.25 103.542969 95.109375 90.105469 100.75 C 84.246094 96.300781 79.375 94.933594 73.488281 94.59375 L 73.488281 92.335938 C 79.375 91.996094 84.246094 90.628906 90.105469 86.164062 C 103.542969 91.820312 119.101562 87.667969 127.964844 76.015625 C 123.554688 65.515625 113.824219 58.128906 102.5 56.722656 C 101.09375 45.394531 93.703125 35.667969 83.203125 31.257812 C 71.539062 40.117188 67.398438 55.679688 73.054688 69.117188 C 68.589844 74.972656 67.222656 79.84375 66.886719 85.746094 L 64.625 85.746094 C 64.289062 79.84375 62.921875 74.972656 58.457031 69.117188 C 64.113281 55.679688 59.957031 40.117188 48.308594 31.257812 C 37.808594 35.667969 30.421875 45.394531 29.011719 56.722656 C 17.6875 58.128906 7.957031 65.515625 3.546875 76.015625 C 12.410156 87.679688 27.972656 91.820312 41.40625 86.164062 C 47.253906 90.617188 52.125 91.996094 57.996094 92.335938 L 57.996094 94.59375 C 52.125 94.933594 47.253906 96.3125 41.40625 100.765625 C 27.972656 95.109375 12.410156 99.25 3.546875 110.914062 C 7.957031 121.414062 17.6875 128.800781 29.011719 130.207031 C 30.433594 141.53125 37.808594 151.261719 48.308594 155.671875 C 59.972656 146.808594 64.113281 131.25 58.46875 117.8125 C 62.921875 111.953125 64.300781 107.070312 64.640625 101.171875 L 66.871094 101.171875 C 67.210938 107.070312 68.589844 111.953125 73.054688 117.8125 Z M 64.679688 94.484375 L 64.679688 92.414062 L 66.816406 92.414062 L 66.816406 94.484375 Z M 76.75 75.625 C 80.808594 68.738281 87.914062 64.136719 95.910156 63.3125 C 94.691406 75.191406 85.273438 84.59375 73.40625 85.8125 C 73.773438 82.269531 74.882812 78.789062 76.75 75.625 Z M 84.21875 39.320312 C 90.375 43.191406 94.542969 49.496094 95.707031 56.585938 C 89.414062 57.140625 83.339844 59.535156 78.25 63.71875 C 75.777344 55.097656 78.023438 45.828125 84.21875 39.320312 Z M 95.503906 80.96875 C 99.683594 75.882812 102.078125 69.804688 102.632812 63.515625 C 109.726562 64.675781 116.03125 68.84375 119.898438 75 C 113.40625 81.183594 104.121094 83.445312 95.503906 80.96875 Z M 47.914062 82.46875 C 41.027344 78.410156 36.429688 71.308594 35.601562 63.3125 C 47.484375 64.527344 56.886719 73.933594 58.105469 85.8125 C 54.558594 85.449219 51.082031 84.339844 47.914062 82.46875 Z M 11.613281 75 C 15.480469 68.84375 21.789062 64.675781 28.878906 63.515625 C 29.433594 69.804688 31.828125 75.882812 36.007812 80.96875 C 27.390625 83.445312 18.121094 81.199219 11.613281 75 Z M 53.261719 63.71875 C 48.171875 59.535156 42.097656 57.140625 35.804688 56.585938 C 36.96875 49.496094 41.136719 43.191406 47.292969 39.320312 C 53.476562 45.816406 55.738281 55.097656 53.261719 63.71875 Z M 54.761719 111.304688 C 50.714844 118.191406 43.597656 122.792969 35.601562 123.617188 C 36.820312 111.738281 46.238281 102.335938 58.105469 101.117188 C 57.738281 104.660156 56.628906 108.140625 54.761719 111.304688 Z M 47.292969 147.609375 C 41.136719 143.738281 36.96875 137.433594 35.804688 130.34375 C 42.097656 129.789062 48.171875 127.394531 53.261719 123.210938 C 55.738281 131.832031 53.492188 141.101562 47.292969 147.609375 Z M 36.007812 105.960938 C 31.828125 111.046875 29.433594 117.125 28.878906 123.414062 C 21.789062 122.25 15.480469 118.085938 11.613281 111.925781 C 18.105469 105.742188 27.390625 103.484375 36.007812 105.960938 Z M 83.597656 104.457031 C 90.484375 108.503906 95.085938 115.621094 95.910156 123.617188 C 84.03125 122.402344 74.625 112.984375 73.40625 101.117188 C 76.953125 101.480469 80.429688 102.589844 83.597656 104.457031 Z M 119.898438 111.925781 C 116.03125 118.085938 109.726562 122.25 102.632812 123.414062 C 102.078125 117.125 99.683594 111.046875 95.503906 105.960938 C 104.121094 103.484375 113.390625 105.730469 119.898438 111.925781 Z M 78.25 123.210938 C 83.339844 127.394531 89.414062 129.789062 95.707031 130.34375 C 94.542969 137.433594 90.375 143.738281 84.21875 147.609375 C 78.035156 141.113281 75.777344 131.832031 78.25 123.210938 Z M 78.25 123.210938 " fill-opacity="1" fill-rule="evenodd"/></g><g fill="#fffefa" fill-opacity="1"><g transform="translate(131.128924, 110.777391)"><g><path d="M 28.46875 -23.78125 L 28.8125 -22.621094 C 28.8125 -22.621094 28.855469 -22.664062 28.984375 -22.707031 C 29.113281 -22.707031 29.242188 -22.75 29.414062 -22.75 C 29.546875 -22.75 29.675781 -22.707031 29.804688 -22.707031 C 29.933594 -22.664062 30.019531 -22.621094 30.019531 -22.621094 L 30.019531 -32.125 C 30.019531 -32.039062 29.847656 -32.039062 29.546875 -32.039062 C 29.199219 -32.039062 29.070312 -32.039062 29.070312 -32.125 L 28.941406 -31.308594 C 28.855469 -30.921875 28.425781 -30.75 27.609375 -30.835938 C 26.75 -30.878906 25.675781 -31.136719 24.382812 -31.609375 C 23.523438 -31.953125 22.535156 -32.210938 21.460938 -32.382812 C 20.382812 -32.554688 19.179688 -32.683594 17.804688 -32.683594 C 15.4375 -32.683594 13.289062 -32.253906 11.398438 -31.480469 C 9.460938 -30.707031 7.828125 -29.589844 6.449219 -28.125 C 5.074219 -26.664062 4 -24.941406 3.269531 -22.921875 C 2.496094 -20.859375 2.148438 -18.621094 2.148438 -16.128906 C 2.148438 -13.632812 2.496094 -11.355469 3.226562 -9.332031 C 3.957031 -7.269531 4.988281 -5.546875 6.320312 -4.085938 C 7.613281 -2.625 9.203125 -1.503906 11.09375 -0.730469 C 12.945312 0.0429688 15.007812 0.429688 17.332031 0.429688 C 18.707031 0.429688 19.996094 0.34375 21.160156 0.128906 C 22.277344 -0.0429688 23.351562 -0.34375 24.296875 -0.773438 C 25.632812 -1.203125 26.707031 -1.460938 27.566406 -1.460938 C 28.425781 -1.460938 28.855469 -1.289062 28.941406 -0.859375 L 29.070312 0.0429688 C 29.070312 0 29.199219 -0.0429688 29.546875 -0.0429688 C 29.847656 -0.0429688 30.019531 0 30.019531 0.0429688 L 30.019531 -9.589844 C 30.019531 -9.503906 29.933594 -9.460938 29.804688 -9.460938 C 29.675781 -9.460938 29.546875 -9.460938 29.414062 -9.460938 C 29.242188 -9.460938 29.113281 -9.460938 28.984375 -9.460938 C 28.855469 -9.460938 28.8125 -9.503906 28.8125 -9.589844 L 28.46875 -8.386719 C 27.953125 -6.664062 27.09375 -5.117188 25.890625 -3.828125 C 24.683594 -2.539062 23.265625 -1.589844 21.71875 -1.074219 C 21.117188 -0.859375 20.472656 -0.6875 19.824219 -0.601562 C 19.179688 -0.515625 18.492188 -0.472656 17.761719 -0.472656 C 16.128906 -0.472656 14.621094 -0.816406 13.289062 -1.589844 C 11.957031 -2.324219 10.792969 -3.355469 9.847656 -4.730469 C 8.902344 -6.105469 8.171875 -7.742188 7.65625 -9.675781 C 7.140625 -11.570312 6.882812 -13.71875 6.882812 -16.042969 C 6.882812 -18.363281 7.140625 -20.472656 7.699219 -22.363281 C 8.214844 -24.253906 8.988281 -25.890625 9.976562 -27.265625 C 10.964844 -28.597656 12.171875 -29.632812 13.589844 -30.40625 C 14.964844 -31.136719 16.515625 -31.523438 18.234375 -31.523438 C 19.480469 -31.523438 20.644531 -31.394531 21.675781 -31.136719 C 23.222656 -30.664062 24.597656 -29.761719 25.847656 -28.46875 C 27.09375 -27.136719 27.953125 -25.589844 28.46875 -23.78125 Z M 28.46875 -23.78125 "/></g></g></g><g fill="#fffefa" fill-opacity="1"><g transform="translate(165.14629, 110.777391)"><g><path d="M 33.757812 -0.0429688 L 33.800781 0 L 33.800781 -0.859375 C 32.855469 -0.859375 32.082031 -0.859375 31.523438 -0.902344 C 30.964844 -0.902344 30.492188 -1.03125 30.105469 -1.203125 C 29.71875 -1.375 29.371094 -1.632812 29.070312 -1.976562 C 28.769531 -2.324219 28.425781 -2.796875 27.996094 -3.441406 C 25.847656 -6.40625 24.039062 -8.945312 22.535156 -11.09375 C 21.03125 -13.203125 19.953125 -14.707031 19.308594 -15.652344 C 21.460938 -16.085938 23.136719 -16.945312 24.382812 -18.148438 C 25.632812 -19.351562 26.277344 -21.03125 26.277344 -23.136719 C 26.277344 -24.511719 25.976562 -25.761719 25.460938 -26.878906 C 24.941406 -27.996094 24.167969 -28.941406 23.179688 -29.71875 C 22.191406 -30.492188 21.03125 -31.136719 19.652344 -31.566406 C 18.277344 -31.996094 16.730469 -32.253906 15.050781 -32.253906 L 2.582031 -32.253906 C 2.582031 -32.167969 2.582031 -31.953125 2.582031 -31.695312 C 2.582031 -31.4375 2.582031 -31.222656 2.582031 -31.136719 L 3.140625 -31.179688 C 4.042969 -31.222656 4.773438 -30.835938 5.375 -30.019531 C 5.933594 -29.15625 6.234375 -28.039062 6.234375 -26.621094 L 6.234375 -5.546875 C 6.234375 -4.085938 5.933594 -2.96875 5.375 -2.148438 C 4.773438 -1.289062 4.042969 -0.902344 3.140625 -0.988281 L 2.582031 -1.03125 L 2.582031 0.0429688 L 14.191406 0.0429688 C 14.191406 -0.0429688 14.148438 -0.214844 14.148438 -0.472656 C 14.148438 -0.730469 14.148438 -0.945312 14.191406 -1.074219 L 13.632812 -1.03125 C 12.6875 -0.945312 11.957031 -1.332031 11.398438 -2.191406 C 10.792969 -3.011719 10.535156 -4.128906 10.535156 -5.589844 L 10.535156 -15.265625 L 14.878906 -15.265625 C 15.308594 -14.492188 16.257812 -13.03125 17.675781 -10.964844 C 19.09375 -8.902344 20.859375 -6.40625 22.921875 -3.484375 C 23.523438 -2.625 24.039062 -1.976562 24.46875 -1.546875 C 24.898438 -1.074219 25.503906 -0.730469 26.191406 -0.515625 C 26.878906 -0.257812 27.824219 -0.128906 28.984375 -0.0859375 C 30.148438 -0.0429688 31.738281 -0.0429688 33.757812 -0.0429688 Z M 15.007812 -16.386719 L 10.492188 -16.386719 L 10.492188 -31.4375 L 13.71875 -31.4375 C 14.835938 -31.4375 15.914062 -31.222656 16.859375 -30.878906 C 17.804688 -30.535156 18.621094 -30.019531 19.308594 -29.371094 C 19.996094 -28.726562 20.515625 -27.953125 20.902344 -27.050781 C 21.246094 -26.148438 21.460938 -25.160156 21.460938 -24.039062 C 21.460938 -21.375 20.859375 -19.4375 19.652344 -18.234375 C 18.449219 -16.988281 16.902344 -16.386719 15.007812 -16.386719 Z M 15.007812 -16.386719 "/></g></g></g><g fill="#fffefa" fill-opacity="1"><g transform="translate(201.571303, 110.777391)"><g><path d="M 23.953125 -31.78125 L 23.910156 -31.824219 L 23.867188 -32.253906 L 1.71875 -32.253906 C 1.71875 -32.167969 1.71875 -31.953125 1.71875 -31.695312 C 1.71875 -31.4375 1.71875 -31.222656 1.71875 -31.136719 L 2.410156 -31.179688 C 3.527344 -31.222656 4.472656 -30.75 5.160156 -29.761719 C 5.847656 -28.769531 6.234375 -27.4375 6.234375 -25.761719 L 6.234375 -6.40625 C 6.234375 -4.6875 5.847656 -3.355469 5.160156 -2.367188 C 4.472656 -1.375 3.527344 -0.902344 2.410156 -0.988281 L 1.71875 -1.03125 L 1.71875 0.0429688 L 24.941406 0.0429688 L 25.03125 -0.386719 C 25.160156 -1.246094 25.332031 -2.234375 25.546875 -3.3125 C 25.71875 -4.34375 25.890625 -5.332031 26.0625 -6.234375 C 26.019531 -6.191406 25.976562 -6.191406 25.976562 -6.191406 C 25.933594 -6.148438 25.890625 -6.148438 25.890625 -6.148438 L 25.675781 -6.148438 C 25.589844 -6.148438 25.546875 -6.148438 25.460938 -6.191406 C 25.332031 -6.191406 25.246094 -6.191406 25.160156 -6.234375 L 24.855469 -5.417969 C 24.425781 -4.214844 23.566406 -3.183594 22.277344 -2.410156 C 20.988281 -1.632812 19.480469 -1.117188 17.71875 -0.945312 C 16.085938 -1.074219 14.835938 -1.375 13.890625 -1.847656 C 12.945312 -2.28125 12.214844 -2.882812 11.699219 -3.613281 C 11.179688 -4.34375 10.878906 -5.203125 10.75 -6.148438 C 10.578125 -7.097656 10.535156 -8.171875 10.535156 -9.332031 L 10.535156 -16.515625 L 13.332031 -16.515625 C 15.136719 -16.515625 16.644531 -16.042969 17.933594 -15.136719 C 19.179688 -14.234375 19.953125 -13.03125 20.210938 -11.570312 L 20.382812 -10.707031 C 20.472656 -10.707031 20.644531 -10.707031 20.816406 -10.75 C 20.988281 -10.75 21.160156 -10.75 21.289062 -10.707031 L 21.289062 -23.351562 C 21.246094 -23.308594 21.203125 -23.308594 21.203125 -23.308594 C 21.160156 -23.265625 21.117188 -23.265625 21.117188 -23.265625 L 20.902344 -23.265625 C 20.816406 -23.265625 20.773438 -23.265625 20.6875 -23.308594 C 20.558594 -23.308594 20.472656 -23.308594 20.382812 -23.351562 L 20.210938 -22.492188 C 19.953125 -20.988281 19.179688 -19.78125 17.933594 -18.878906 C 16.644531 -17.976562 15.136719 -17.546875 13.332031 -17.546875 L 10.535156 -17.546875 L 10.535156 -31.308594 L 16.042969 -31.308594 C 17.847656 -31.308594 19.4375 -30.835938 20.816406 -29.933594 C 22.191406 -29.027344 23.09375 -27.824219 23.523438 -26.363281 L 23.78125 -25.503906 C 23.867188 -25.503906 24.039062 -25.503906 24.210938 -25.546875 C 24.382812 -25.546875 24.554688 -25.546875 24.683594 -25.503906 C 24.554688 -26.449219 24.425781 -27.480469 24.296875 -28.640625 C 24.167969 -29.761719 24.039062 -30.835938 23.953125 -31.78125 Z M 23.953125 -31.78125 "/></g></g></g><g fill="#fffefa" fill-opacity="1"><g transform="translate(231.805221, 110.777391)"><g><path d="M 12.6875 -0.859375 C 12.171875 -0.859375 11.785156 -1.03125 11.527344 -1.460938 C 11.222656 -1.847656 11.007812 -2.410156 10.878906 -3.183594 C 10.707031 -3.914062 10.621094 -4.816406 10.578125 -5.847656 C 10.535156 -6.882812 10.535156 -8.085938 10.535156 -9.375 L 10.535156 -31.394531 L 12.257812 -31.394531 C 15.09375 -31.394531 17.632812 -31.007812 19.78125 -30.277344 C 21.933594 -29.546875 23.738281 -28.511719 25.203125 -27.179688 C 26.664062 -25.847656 27.738281 -24.253906 28.46875 -22.363281 C 29.199219 -20.472656 29.589844 -18.40625 29.589844 -16.128906 C 29.589844 -13.589844 29.15625 -11.355469 28.382812 -9.460938 C 27.566406 -7.570312 26.40625 -5.976562 24.941406 -4.6875 C 23.4375 -3.398438 21.632812 -2.453125 19.566406 -1.804688 C 17.503906 -1.160156 15.179688 -0.859375 12.6875 -0.859375 Z M 2.582031 0.0429688 L 13.976562 0 C 16.988281 0 19.78125 -0.34375 22.277344 -1.03125 C 24.769531 -1.71875 26.921875 -2.710938 28.726562 -4.085938 C 30.492188 -5.417969 31.867188 -7.097656 32.855469 -9.117188 C 33.800781 -11.09375 34.320312 -13.460938 34.320312 -16.128906 C 34.320312 -18.535156 33.886719 -20.730469 33.113281 -22.707031 C 32.339844 -24.683594 31.136719 -26.40625 29.589844 -27.824219 C 28.039062 -29.199219 26.105469 -30.320312 23.78125 -31.09375 C 21.460938 -31.867188 18.75 -32.253906 15.695312 -32.253906 L 2.582031 -32.253906 C 2.582031 -32.167969 2.582031 -31.953125 2.582031 -31.695312 C 2.582031 -31.4375 2.582031 -31.222656 2.582031 -31.136719 L 3.140625 -31.179688 C 4.042969 -31.222656 4.773438 -30.835938 5.375 -30.019531 C 5.933594 -29.15625 6.234375 -28.039062 6.234375 -26.621094 L 6.234375 -5.546875 C 6.234375 -4.085938 5.933594 -2.96875 5.375 -2.148438 C 4.773438 -1.289062 4.042969 -0.902344 3.140625 -0.988281 L 2.582031 -1.03125 Z M 2.582031 0.0429688 "/></g></g></g><g fill="#fffefa" fill-opacity="1"><g transform="translate(270.680876, 110.777391)"><g><path d="M 3.65625 0 L 15.265625 0 C 15.265625 -0.0859375 15.222656 -0.257812 15.222656 -0.515625 C 15.222656 -0.773438 15.222656 -0.988281 15.265625 -1.117188 L 14.707031 -1.074219 C 13.761719 -0.988281 13.03125 -1.375 12.472656 -2.234375 C 11.871094 -3.054688 11.613281 -4.171875 11.613281 -5.632812 L 11.613281 -14.835938 L 13.761719 -14.835938 C 15.609375 -14.835938 17.289062 -14.964844 18.835938 -15.308594 C 20.339844 -15.652344 21.632812 -16.171875 22.75 -16.859375 C 23.824219 -17.546875 24.640625 -18.40625 25.246094 -19.4375 C 25.847656 -20.472656 26.148438 -21.761719 26.148438 -23.222656 C 26.148438 -24.597656 25.890625 -25.804688 25.417969 -26.921875 C 24.898438 -28.039062 24.210938 -28.984375 23.308594 -29.804688 C 22.40625 -30.578125 21.332031 -31.222656 20.082031 -31.652344 C 18.835938 -32.082031 17.460938 -32.296875 15.914062 -32.296875 L 3.65625 -32.296875 C 3.65625 -32.210938 3.65625 -31.996094 3.65625 -31.738281 C 3.65625 -31.480469 3.65625 -31.265625 3.65625 -31.179688 L 4.214844 -31.222656 C 5.117188 -31.265625 5.847656 -30.878906 6.449219 -30.0625 C 7.011719 -29.199219 7.3125 -28.082031 7.3125 -26.664062 L 7.3125 -5.589844 C 7.3125 -4.128906 7.011719 -3.011719 6.449219 -2.191406 C 5.847656 -1.332031 5.117188 -0.945312 4.214844 -1.03125 L 3.65625 -1.074219 Z M 13.761719 -15.695312 L 11.613281 -15.695312 L 11.613281 -31.523438 L 14.835938 -31.523438 C 15.914062 -31.523438 16.902344 -31.308594 17.804688 -30.964844 C 18.707031 -30.578125 19.480469 -30.0625 20.125 -29.414062 C 20.773438 -28.726562 21.289062 -27.953125 21.632812 -27.007812 C 21.976562 -26.0625 22.148438 -24.988281 22.148438 -23.867188 C 22.148438 -21.03125 21.375 -18.964844 19.824219 -17.675781 C 18.277344 -16.34375 16.257812 -15.695312 13.761719 -15.695312 Z M 13.761719 -15.695312 "/></g></g></g><g fill="#fffefa" fill-opacity="1"><g transform="translate(299.882938, 110.777391)"><g><path d="M 33.84375 -1.289062 L 33.199219 -1.332031 C 32.167969 -1.246094 31.179688 -1.847656 30.148438 -3.054688 C 29.113281 -4.257812 28.253906 -5.890625 27.609375 -7.957031 L 20.253906 -30.964844 C 20.167969 -31.351562 20.082031 -31.695312 19.996094 -32.039062 C 19.910156 -32.296875 19.867188 -32.511719 19.78125 -32.769531 C 19.695312 -32.984375 19.609375 -33.113281 19.566406 -33.113281 L 19.136719 -33.113281 C 19.222656 -32.597656 18.964844 -32.167969 18.363281 -31.78125 C 17.761719 -31.351562 16.988281 -31.09375 15.957031 -30.964844 C 15.957031 -30.878906 16 -30.835938 16 -30.75 C 16 -30.664062 16.042969 -30.578125 16.085938 -30.535156 L 8.601562 -7.828125 C 7.914062 -5.761719 6.925781 -4.171875 5.632812 -3.011719 C 4.34375 -1.804688 3.011719 -1.246094 1.546875 -1.332031 L 0.6875 -1.332031 C 0.6875 -1.246094 0.6875 -1.203125 0.730469 -1.160156 C 0.730469 -1.074219 0.730469 -1.03125 0.730469 -0.988281 C 0.730469 -0.902344 0.773438 -0.859375 0.773438 -0.859375 C 0.773438 -0.773438 0.730469 -0.6875 0.730469 -0.601562 C 0.730469 -0.515625 0.730469 -0.429688 0.730469 -0.34375 C 0.6875 -0.214844 0.6875 -0.0859375 0.6875 0 L 13.160156 0 C 13.160156 -0.0859375 13.117188 -0.300781 13.117188 -0.644531 C 13.117188 -0.988281 13.117188 -1.203125 13.160156 -1.332031 L 12.34375 -1.332031 C 10.964844 -1.246094 10.0625 -1.761719 9.589844 -2.882812 C 9.117188 -3.957031 9.117188 -5.460938 9.632812 -7.355469 L 11.09375 -12 L 21.890625 -12 L 23.136719 -7.957031 C 23.78125 -5.890625 23.867188 -4.214844 23.4375 -3.011719 C 23.007812 -1.804688 22.0625 -1.203125 20.6875 -1.289062 L 19.867188 -1.289062 L 19.867188 0.0429688 L 33.84375 0.0429688 C 33.84375 -0.0429688 33.800781 -0.257812 33.800781 -0.601562 C 33.800781 -0.902344 33.800781 -1.117188 33.84375 -1.289062 Z M 21.589844 -13.074219 L 11.484375 -13.074219 L 16.558594 -29.113281 Z M 21.589844 -13.074219 "/></g></g></g><g fill="#fffefa" fill-opacity="1"><g transform="translate(336.307959, 110.777391)"><g><path d="M 23.867188 -26.449219 L 23.953125 -26.449219 L 18.449219 -15.308594 L 11.484375 -26.449219 L 11.527344 -26.449219 C 10.578125 -27.910156 10.148438 -29.113281 10.191406 -29.976562 C 10.234375 -30.835938 10.75 -31.265625 11.785156 -31.222656 L 12.386719 -31.179688 L 12.386719 -32.253906 L 0.472656 -32.253906 C 0.472656 -32.125 0.472656 -31.953125 0.472656 -31.695312 C 0.472656 -31.4375 0.472656 -31.265625 0.472656 -31.179688 L 0.902344 -31.222656 C 1.546875 -31.265625 2.324219 -30.921875 3.269531 -30.234375 C 4.171875 -29.503906 5.074219 -28.511719 5.976562 -27.265625 L 14.535156 -13.847656 L 14.535156 -6.449219 C 14.535156 -4.730469 14.148438 -3.398438 13.460938 -2.410156 C 12.773438 -1.417969 11.828125 -0.945312 10.707031 -1.03125 L 10.019531 -1.074219 L 10.019531 0 L 23.351562 0 C 23.351562 -0.0859375 23.308594 -0.257812 23.308594 -0.515625 C 23.308594 -0.773438 23.308594 -0.988281 23.351562 -1.117188 L 22.664062 -1.074219 C 21.503906 -0.988281 20.558594 -1.460938 19.867188 -2.453125 C 19.179688 -3.441406 18.835938 -4.773438 18.835938 -6.492188 L 18.835938 -14.019531 L 26.105469 -27.222656 C 26.921875 -28.511719 27.824219 -29.503906 28.855469 -30.234375 C 29.890625 -30.964844 30.835938 -31.308594 31.78125 -31.265625 L 32.382812 -31.222656 L 32.382812 -32.296875 L 21.375 -32.296875 C 21.375 -32.210938 21.375 -31.996094 21.375 -31.738281 C 21.375 -31.480469 21.375 -31.265625 21.375 -31.179688 L 22.105469 -31.222656 C 23.394531 -31.265625 24.167969 -30.835938 24.46875 -29.976562 C 24.769531 -29.070312 24.554688 -27.910156 23.867188 -26.449219 Z M 23.867188 -26.449219 "/></g></g></g></svg>